<mxfile host="app.diagrams.net" modified="2022-10-21T01:29:02.633Z" agent="5.0 (Windows NT 10.0; Win64; x64) AppleWebKit/537.36 (KHTML, like Gecko) Chrome/106.0.0.0 Safari/537.36 Edg/106.0.1370.47" etag="PRcjNg7Oo-76VfEl8EYE" version="20.4.2" type="github">
  <diagram name="Page-1" id="e7e014a7-5840-1c2e-5031-d8a46d1fe8dd">
    <mxGraphModel dx="745" dy="444" grid="1" gridSize="10" guides="1" tooltips="1" connect="1" arrows="1" fold="1" page="1" pageScale="1" pageWidth="1169" pageHeight="826" background="none" math="0" shadow="0">
      <root>
        <mxCell id="0" />
        <mxCell id="1" parent="0" />
        <mxCell id="3" value="INTERFAZ PUNTO DE VENTA" style="swimlane;whiteSpace=wrap" parent="1" vertex="1">
          <mxGeometry x="320" y="40" width="280" height="950" as="geometry" />
        </mxCell>
        <mxCell id="ARgU50roLUr7iRSEfQB4-46" value="&lt;span style=&quot;&quot;&gt;INICIAR SESIÓN&lt;/span&gt;&lt;br style=&quot;padding: 0px; margin: 0px;&quot;&gt;&lt;span style=&quot;&quot;&gt;COMO&lt;/span&gt;&lt;br style=&quot;padding: 0px; margin: 0px;&quot;&gt;&lt;span style=&quot;&quot;&gt;ADMINISTRADOR&lt;/span&gt;" style="rounded=1;whiteSpace=wrap;html=1;" parent="3" vertex="1">
          <mxGeometry x="74" y="90" width="120" height="60" as="geometry" />
        </mxCell>
        <mxCell id="ARgU50roLUr7iRSEfQB4-50" value="SELECCIONAR PESTAÑA &quot;PRODUCTOS&quot;" style="rounded=1;whiteSpace=wrap;html=1;" parent="3" vertex="1">
          <mxGeometry x="75" y="203" width="120" height="60" as="geometry" />
        </mxCell>
        <mxCell id="ARgU50roLUr7iRSEfQB4-51" value="PRESIONA EL BOTÓN &quot;AGREGAR&quot;" style="rounded=1;whiteSpace=wrap;html=1;" parent="3" vertex="1">
          <mxGeometry x="76" y="301" width="120" height="60" as="geometry" />
        </mxCell>
        <mxCell id="ARgU50roLUr7iRSEfQB4-140" style="edgeStyle=orthogonalEdgeStyle;rounded=0;orthogonalLoop=1;jettySize=auto;html=1;entryX=0.562;entryY=-0.049;entryDx=0;entryDy=0;entryPerimeter=0;strokeColor=#FF0000;endArrow=open;endFill=0;" parent="3" source="ARgU50roLUr7iRSEfQB4-69" target="ARgU50roLUr7iRSEfQB4-75" edge="1">
          <mxGeometry relative="1" as="geometry" />
        </mxCell>
        <mxCell id="ARgU50roLUr7iRSEfQB4-69" value="INGRESA DATOS DE NUEVO PRODUCTO" style="rounded=1;whiteSpace=wrap;html=1;" parent="3" vertex="1">
          <mxGeometry x="95" y="400" width="120" height="60" as="geometry" />
        </mxCell>
        <mxCell id="ARgU50roLUr7iRSEfQB4-75" value="PRESIONAR BOTÓN GUARDAR" style="rounded=1;whiteSpace=wrap;html=1;" parent="3" vertex="1">
          <mxGeometry x="30" y="600" width="120" height="60" as="geometry" />
        </mxCell>
        <mxCell id="ARgU50roLUr7iRSEfQB4-104" value="PRESIONA EL BOTÓN CONTINUAR" style="rounded=1;whiteSpace=wrap;html=1;" parent="3" vertex="1">
          <mxGeometry x="110" y="820" width="120" height="60" as="geometry" />
        </mxCell>
        <mxCell id="39" value="" style="endArrow=open;strokeColor=#FF0000;endFill=1;rounded=0" parent="3" target="38" edge="1">
          <mxGeometry relative="1" as="geometry">
            <mxPoint x="160" y="880" as="sourcePoint" />
          </mxGeometry>
        </mxCell>
        <mxCell id="38" value="" style="ellipse;shape=endState;fillColor=#000000;strokeColor=#ff0000" parent="3" vertex="1">
          <mxGeometry x="145" y="908" width="30" height="30" as="geometry" />
        </mxCell>
        <mxCell id="13" value="" style="ellipse;shape=startState;fillColor=#000000;strokeColor=#ff0000;" parent="3" vertex="1">
          <mxGeometry x="120" y="30.24" width="30" height="30" as="geometry" />
        </mxCell>
        <mxCell id="ARgU50roLUr7iRSEfQB4-47" value="" style="edgeStyle=elbowEdgeStyle;elbow=horizontal;verticalAlign=bottom;endArrow=none;endSize=8;strokeColor=#FF0000;endFill=1;rounded=0;entryX=0.518;entryY=-0.004;entryDx=0;entryDy=0;entryPerimeter=0;" parent="3" edge="1">
          <mxGeometry x="94" y="20.24" as="geometry">
            <mxPoint x="136.15999999999985" y="89.99999999999999" as="targetPoint" />
            <mxPoint x="136.75" y="59.98576210305861" as="sourcePoint" />
          </mxGeometry>
        </mxCell>
        <mxCell id="4" value="SISTEMA" style="swimlane;whiteSpace=wrap" parent="1" vertex="1">
          <mxGeometry x="600" y="40" width="410" height="950" as="geometry" />
        </mxCell>
        <mxCell id="ARgU50roLUr7iRSEfQB4-53" value="MUESTRA INTERFAZ DE PUNTO DE VENTA" style="rounded=1;whiteSpace=wrap;html=1;" parent="4" vertex="1">
          <mxGeometry x="125" y="107" width="120" height="60" as="geometry" />
        </mxCell>
        <mxCell id="ARgU50roLUr7iRSEfQB4-49" value="MUESTRA SECCIÓN DE PRODUCTOS" style="rounded=1;whiteSpace=wrap;html=1;" parent="4" vertex="1">
          <mxGeometry x="128" y="220" width="120" height="60" as="geometry" />
        </mxCell>
        <mxCell id="ARgU50roLUr7iRSEfQB4-48" value="MUESTRA VENTANA CON FORMULARIO" style="rounded=1;whiteSpace=wrap;html=1;" parent="4" vertex="1">
          <mxGeometry x="145" y="310" width="120" height="60" as="geometry" />
        </mxCell>
        <mxCell id="ARgU50roLUr7iRSEfQB4-68" value="LEE Y VERIFICA QUE LOS DATOS NO SEAN DUPLICADOS" style="rounded=1;whiteSpace=wrap;html=1;" parent="4" vertex="1">
          <mxGeometry x="125" y="400" width="120" height="60" as="geometry" />
        </mxCell>
        <mxCell id="ARgU50roLUr7iRSEfQB4-87" value="" style="edgeStyle=orthogonalEdgeStyle;rounded=0;orthogonalLoop=1;jettySize=auto;html=1;endArrow=open;endFill=0;strokeColor=#FF0000;entryX=0.509;entryY=0.004;entryDx=0;entryDy=0;entryPerimeter=0;" parent="4" source="ARgU50roLUr7iRSEfQB4-79" target="ARgU50roLUr7iRSEfQB4-95" edge="1">
          <mxGeometry relative="1" as="geometry">
            <mxPoint x="52" y="610" as="targetPoint" />
          </mxGeometry>
        </mxCell>
        <mxCell id="ARgU50roLUr7iRSEfQB4-99" value="" style="edgeStyle=orthogonalEdgeStyle;rounded=0;orthogonalLoop=1;jettySize=auto;html=1;strokeColor=#FF0000;endArrow=open;endFill=0;entryX=0.514;entryY=-0.034;entryDx=0;entryDy=0;entryPerimeter=0;" parent="4" source="ARgU50roLUr7iRSEfQB4-79" target="ARgU50roLUr7iRSEfQB4-94" edge="1">
          <mxGeometry relative="1" as="geometry">
            <mxPoint x="330" y="546" as="targetPoint" />
          </mxGeometry>
        </mxCell>
        <mxCell id="ARgU50roLUr7iRSEfQB4-79" value="DUPLICADOS?" style="rhombus;whiteSpace=wrap;html=1;fillColor=#ffffc0;strokeColor=#ff0000;" parent="4" vertex="1">
          <mxGeometry x="137" y="496" width="100" height="100" as="geometry" />
        </mxCell>
        <mxCell id="ARgU50roLUr7iRSEfQB4-93" value="" style="edgeStyle=orthogonalEdgeStyle;html=1;verticalAlign=bottom;endArrow=open;endSize=8;strokeColor=#ff0000;rounded=0;exitX=0.522;exitY=1.061;exitDx=0;exitDy=0;exitPerimeter=0;entryX=0.5;entryY=0;entryDx=0;entryDy=0;" parent="4" source="ARgU50roLUr7iRSEfQB4-68" target="ARgU50roLUr7iRSEfQB4-79" edge="1">
          <mxGeometry relative="1" as="geometry">
            <mxPoint x="401.1999999999998" y="635.75" as="targetPoint" />
            <mxPoint x="489.9999999999998" y="560.0699999999999" as="sourcePoint" />
          </mxGeometry>
        </mxCell>
        <mxCell id="ARgU50roLUr7iRSEfQB4-142" value="" style="edgeStyle=orthogonalEdgeStyle;rounded=0;orthogonalLoop=1;jettySize=auto;html=1;strokeColor=#FF0000;endArrow=open;endFill=0;" parent="4" source="ARgU50roLUr7iRSEfQB4-95" edge="1">
          <mxGeometry relative="1" as="geometry">
            <mxPoint x="73" y="700" as="targetPoint" />
          </mxGeometry>
        </mxCell>
        <mxCell id="ARgU50roLUr7iRSEfQB4-95" value="GUARDA LOS DATOS INGRESADOS" style="rounded=1;whiteSpace=wrap;html=1;" parent="4" vertex="1">
          <mxGeometry x="13" y="610" width="120" height="60" as="geometry" />
        </mxCell>
        <mxCell id="ARgU50roLUr7iRSEfQB4-94" value="MUESTRA MENSAJE DE ERROR EN PANTALLA" style="rounded=1;whiteSpace=wrap;html=1;" parent="4" vertex="1">
          <mxGeometry x="260" y="610" width="120" height="60" as="geometry" />
        </mxCell>
        <mxCell id="ARgU50roLUr7iRSEfQB4-106" style="edgeStyle=orthogonalEdgeStyle;rounded=0;orthogonalLoop=1;jettySize=auto;html=1;entryX=0.452;entryY=-0.004;entryDx=0;entryDy=0;entryPerimeter=0;strokeColor=#FF0000;endArrow=open;endFill=0;exitX=0.51;exitY=0.996;exitDx=0;exitDy=0;exitPerimeter=0;" parent="4" source="ARgU50roLUr7iRSEfQB4-100" target="ARgU50roLUr7iRSEfQB4-52" edge="1">
          <mxGeometry relative="1" as="geometry">
            <Array as="points">
              <mxPoint x="75" y="770" />
              <mxPoint x="284" y="770" />
            </Array>
          </mxGeometry>
        </mxCell>
        <mxCell id="ARgU50roLUr7iRSEfQB4-100" value="REGISTRA NUEVO PRODUCTO" style="rounded=1;whiteSpace=wrap;html=1;" parent="4" vertex="1">
          <mxGeometry x="14" y="705" width="120" height="60" as="geometry" />
        </mxCell>
        <mxCell id="ARgU50roLUr7iRSEfQB4-52" value="MUESTRA MENSAJE DE OPERACIÓN EXITOSA" style="rounded=1;whiteSpace=wrap;html=1;" parent="4" vertex="1">
          <mxGeometry x="230" y="790" width="120" height="60" as="geometry" />
        </mxCell>
        <mxCell id="ARgU50roLUr7iRSEfQB4-110" style="edgeStyle=orthogonalEdgeStyle;rounded=0;orthogonalLoop=1;jettySize=auto;html=1;strokeColor=#FF0000;endArrow=open;endFill=0;entryX=0.999;entryY=0.515;entryDx=0;entryDy=0;entryPerimeter=0;" parent="4" target="ARgU50roLUr7iRSEfQB4-48" edge="1">
          <mxGeometry relative="1" as="geometry">
            <mxPoint x="280" y="420" as="targetPoint" />
            <mxPoint x="380" y="630" as="sourcePoint" />
            <Array as="points">
              <mxPoint x="390" y="630" />
              <mxPoint x="390" y="340" />
              <mxPoint x="265" y="340" />
            </Array>
          </mxGeometry>
        </mxCell>
        <mxCell id="ARgU50roLUr7iRSEfQB4-137" value="NO" style="text;align=center;fontStyle=1;verticalAlign=middle;spacingLeft=3;spacingRight=3;strokeColor=none;rotatable=0;points=[[0,0.5],[1,0.5]];portConstraint=eastwest;" parent="4" vertex="1">
          <mxGeometry x="237" y="520" width="80" height="26" as="geometry" />
        </mxCell>
        <mxCell id="ARgU50roLUr7iRSEfQB4-136" value="SÍ" style="text;align=center;fontStyle=1;verticalAlign=middle;spacingLeft=3;spacingRight=3;strokeColor=none;rotatable=0;points=[[0,0.5],[1,0.5]];portConstraint=eastwest;" parent="4" vertex="1">
          <mxGeometry x="57" y="520" width="80" height="26" as="geometry" />
        </mxCell>
        <mxCell id="ARgU50roLUr7iRSEfQB4-61" value="" style="edgeStyle=orthogonalEdgeStyle;html=1;verticalAlign=bottom;endArrow=open;endSize=8;strokeColor=#ff0000;rounded=0;exitX=1.003;exitY=0.477;exitDx=0;exitDy=0;exitPerimeter=0;entryX=-0.004;entryY=0.515;entryDx=0;entryDy=0;entryPerimeter=0;" parent="1" target="ARgU50roLUr7iRSEfQB4-53" edge="1">
          <mxGeometry relative="1" as="geometry">
            <mxPoint x="705" y="190" as="targetPoint" />
            <mxPoint x="514.3599999999999" y="158.6199999999999" as="sourcePoint" />
          </mxGeometry>
        </mxCell>
        <mxCell id="ARgU50roLUr7iRSEfQB4-62" value="" style="edgeStyle=orthogonalEdgeStyle;html=1;verticalAlign=bottom;endArrow=open;endSize=8;strokeColor=#ff0000;rounded=0;exitX=1.003;exitY=0.519;exitDx=0;exitDy=0;exitPerimeter=0;entryX=-0.023;entryY=0.527;entryDx=0;entryDy=0;entryPerimeter=0;" parent="1" edge="1">
          <mxGeometry relative="1" as="geometry">
            <mxPoint x="725.2399999999998" y="291.62" as="targetPoint" />
            <mxPoint x="515.3600000000001" y="274.14" as="sourcePoint" />
            <Array as="points">
              <mxPoint x="615" y="274" />
              <mxPoint x="615" y="292" />
            </Array>
          </mxGeometry>
        </mxCell>
        <mxCell id="ARgU50roLUr7iRSEfQB4-64" value="" style="edgeStyle=orthogonalEdgeStyle;html=1;verticalAlign=bottom;endArrow=open;endSize=8;strokeColor=#ff0000;rounded=0;exitX=0.995;exitY=0.496;exitDx=0;exitDy=0;exitPerimeter=0;entryX=0.014;entryY=0.61;entryDx=0;entryDy=0;entryPerimeter=0;" parent="1" target="ARgU50roLUr7iRSEfQB4-48" edge="1">
          <mxGeometry relative="1" as="geometry">
            <mxPoint x="660" y="430" as="targetPoint" />
            <mxPoint x="515.3999999999999" y="370.7600000000001" as="sourcePoint" />
            <Array as="points">
              <mxPoint x="580" y="371" />
              <mxPoint x="580" y="387" />
            </Array>
          </mxGeometry>
        </mxCell>
        <mxCell id="ARgU50roLUr7iRSEfQB4-72" value="" style="edgeStyle=orthogonalEdgeStyle;html=1;verticalAlign=bottom;endArrow=open;endSize=8;strokeColor=#ff0000;rounded=0;exitX=0.996;exitY=0.489;exitDx=0;exitDy=0;exitPerimeter=0;entryX=0.001;entryY=0.512;entryDx=0;entryDy=0;entryPerimeter=0;" parent="1" source="ARgU50roLUr7iRSEfQB4-75" target="ARgU50roLUr7iRSEfQB4-68" edge="1">
          <mxGeometry relative="1" as="geometry">
            <mxPoint x="599.9999999999998" y="575.6800000000001" as="targetPoint" />
            <mxPoint x="688.7999999999997" y="500" as="sourcePoint" />
            <Array as="points">
              <mxPoint x="550" y="669" />
              <mxPoint x="550" y="570" />
              <mxPoint x="620" y="570" />
              <mxPoint x="620" y="471" />
            </Array>
          </mxGeometry>
        </mxCell>
        <mxCell id="ARgU50roLUr7iRSEfQB4-111" value="" style="edgeStyle=orthogonalEdgeStyle;rounded=0;orthogonalLoop=1;jettySize=auto;html=1;strokeColor=#FF0000;endArrow=open;endFill=0;entryX=0.526;entryY=-0.087;entryDx=0;entryDy=0;entryPerimeter=0;" parent="1" target="ARgU50roLUr7iRSEfQB4-50" edge="1">
          <mxGeometry relative="1" as="geometry">
            <mxPoint x="785" y="210" as="sourcePoint" />
            <Array as="points">
              <mxPoint x="785" y="220" />
              <mxPoint x="458" y="220" />
            </Array>
          </mxGeometry>
        </mxCell>
        <mxCell id="ARgU50roLUr7iRSEfQB4-112" style="edgeStyle=orthogonalEdgeStyle;rounded=0;orthogonalLoop=1;jettySize=auto;html=1;strokeColor=#FF0000;endArrow=open;endFill=0;exitX=0.478;exitY=1.049;exitDx=0;exitDy=0;exitPerimeter=0;" parent="1" source="ARgU50roLUr7iRSEfQB4-49" edge="1">
          <mxGeometry relative="1" as="geometry">
            <mxPoint x="450" y="340" as="targetPoint" />
            <Array as="points">
              <mxPoint x="785" y="330" />
              <mxPoint x="450" y="330" />
            </Array>
          </mxGeometry>
        </mxCell>
        <mxCell id="ARgU50roLUr7iRSEfQB4-113" style="edgeStyle=orthogonalEdgeStyle;rounded=0;orthogonalLoop=1;jettySize=auto;html=1;entryX=0.63;entryY=-0.064;entryDx=0;entryDy=0;entryPerimeter=0;strokeColor=#FF0000;endArrow=open;endFill=0;exitX=0.308;exitY=1.027;exitDx=0;exitDy=0;exitPerimeter=0;" parent="1" source="ARgU50roLUr7iRSEfQB4-48" target="ARgU50roLUr7iRSEfQB4-131" edge="1">
          <mxGeometry relative="1" as="geometry">
            <Array as="points">
              <mxPoint x="782" y="420" />
              <mxPoint x="186" y="420" />
            </Array>
          </mxGeometry>
        </mxCell>
        <mxCell id="ARgU50roLUr7iRSEfQB4-117" style="edgeStyle=orthogonalEdgeStyle;rounded=0;orthogonalLoop=1;jettySize=auto;html=1;entryX=1.005;entryY=0.542;entryDx=0;entryDy=0;entryPerimeter=0;strokeColor=#FF0000;endArrow=open;endFill=0;" parent="1" target="ARgU50roLUr7iRSEfQB4-104" edge="1">
          <mxGeometry relative="1" as="geometry">
            <mxPoint x="830" y="860" as="sourcePoint" />
          </mxGeometry>
        </mxCell>
        <mxCell id="ARgU50roLUr7iRSEfQB4-119" value="EMPLEADO" style="swimlane;whiteSpace=wrap" parent="1" vertex="1">
          <mxGeometry x="40" y="40" width="280" height="950" as="geometry" />
        </mxCell>
        <mxCell id="ARgU50roLUr7iRSEfQB4-144" style="edgeStyle=orthogonalEdgeStyle;rounded=0;orthogonalLoop=1;jettySize=auto;html=1;entryX=0.497;entryY=-0.007;entryDx=0;entryDy=0;entryPerimeter=0;strokeColor=#FF0000;endArrow=open;endFill=0;exitX=0.497;exitY=1;exitDx=0;exitDy=0;exitPerimeter=0;" parent="ARgU50roLUr7iRSEfQB4-119" source="ARgU50roLUr7iRSEfQB4-131" target="ARgU50roLUr7iRSEfQB4-141" edge="1">
          <mxGeometry relative="1" as="geometry" />
        </mxCell>
        <mxCell id="ARgU50roLUr7iRSEfQB4-131" value="REVISA LA ORDEN DE PROVEEDOR" style="rounded=1;whiteSpace=wrap;html=1;" parent="ARgU50roLUr7iRSEfQB4-119" vertex="1">
          <mxGeometry x="70" y="460" width="120" height="60" as="geometry" />
        </mxCell>
        <mxCell id="ARgU50roLUr7iRSEfQB4-141" value="REVISA LA EXISTENCIA DEL PRODUCTO EN ALMACEN" style="rounded=1;whiteSpace=wrap;html=1;" parent="ARgU50roLUr7iRSEfQB4-119" vertex="1">
          <mxGeometry x="70" y="660" width="120" height="60" as="geometry" />
        </mxCell>
        <mxCell id="ARgU50roLUr7iRSEfQB4-139" style="edgeStyle=orthogonalEdgeStyle;rounded=0;orthogonalLoop=1;jettySize=auto;html=1;entryX=0.011;entryY=0.424;entryDx=0;entryDy=0;entryPerimeter=0;strokeColor=#FF0000;endArrow=open;endFill=0;" parent="1" target="ARgU50roLUr7iRSEfQB4-69" edge="1">
          <mxGeometry relative="1" as="geometry">
            <mxPoint x="240" y="740" as="sourcePoint" />
            <Array as="points">
              <mxPoint x="290" y="740" />
              <mxPoint x="290" y="465" />
            </Array>
          </mxGeometry>
        </mxCell>
      </root>
    </mxGraphModel>
  </diagram>
</mxfile>
